<?xml version="1.0" encoding="utf-8"?>
<!-- Generator: Adobe Illustrator 19.2.0, SVG Export Plug-In . SVG Version: 6.00 Build 0)  -->
<svg version="1.1" id="Layer_1" xmlns="http://www.w3.org/2000/svg" xmlns:xlink="http://www.w3.org/1999/xlink" x="0px" y="0px"
	 viewBox="0 0 700 700" style="enable-background:new 0 0 700 700;" xml:space="preserve">
<style type="text/css">
	.st0{fill:#C13E3E;}
	.st1{fill:#FFFFFF;}
</style>
<g>
	<path class="st0" d="M638.9,178l-21.5-39.4L600,111.6l-22.2-14.5L569,83.5l-23.5-3.5c-51.5-36-113.4-58-180.2-60.8l0.6-0.2
		l-14.8-2.5l19.1-13.3l-50,3.9l-31.2,11.6l-12.4-3.7l-60.1,31.5l0.1,0C96.1,98.8,11.4,219,11.4,358.6c0,35,5.6,68.7,15.5,100.4
		l11.8-10.6l-3,19.6l13.1,18.8v25.9c10.3,20.1,22.3,39.2,36.3,56.8l16,21.4l53.2,51.2l-4.9,17.6l29.5-8.6
		c50.5,29.8,109.4,47.1,172.2,47.1c30.2,0,59.4-4,87.3-11.4l18.3-21.5v10.6l37.7-15.5h12c63.8-32.9,115.8-85.4,148.1-149.5
		l12.4-58.3l1.9,15l8.7-15.3c8.6-29.9,13.3-61.4,13.3-94C691,292.2,671.8,230.4,638.9,178z"/>
	<g>
		<path class="st1" d="M335.4,481l1.7,8.4c0,0,2.7,36,2,42c-0.7,6.1-1.8,19.5-1.8,19.5s8.5,15.1,17.3,20.5c0,0,3.7-6.1,5.7-7.1
			s6.7-5,6.7-5s-2-6.1-2-10.1c0-4-0.3-39.3-1.3-45.4c-1-6.1-1.7-36.1,0-40.8l-24.9,10.8L335.4,481z"/>
		<path class="st1" d="M365.8,141.5l-29.2,6.9v-11.8c0,0,3.7,1,6.1,0s4.4-2.7,4.4-2.7l2-3.7h16.8V141.5z"/>
		<g>
			<path class="st1" d="M386.2,249l8.2-9.1l-6.3,1.4l-3.6,2.5l-1.7-1.9l-5.3,1.1c-8.3-3.7-17.5-5.7-27.1-5.7c-3.5,0-7,0.3-10.4,0.8
				l2.8-4.9l-16.5,7.8l1-3.7l-8.8,8c-14.6,7.8-25.9,20.8-31.6,36.5l-9.3,10.3l6.9-4.8l-2.6,6.2l2.1-0.8c-0.7,3.9-1.1,8-1.1,12.2
				c0,14.7,4.8,28.4,12.8,39.5l89.9-95.6L386.2,249z"/>
			<path class="st1" d="M417.4,297.7c-0.8-7.3-2.7-14.2-5.6-20.6l2.4-3.3l-2.6,0.6l3.9-6.2l-6.2,6.2v0.1l-88.6,91.1
				c0.1,0.1,0.3,0.1,0.4,0.2l-8.2,8.9l8.5-5.8l-1,2.5l2.9-2.4l-3,8.6l6.5-9.6c7.4,2.8,15.4,4.3,23.7,4.3c14.4,0,27.8-4.6,38.8-12.3
				l-5.7,5.1l7.2-3.5l2.3-4.5c0.4-0.4,0.8-0.7,1.3-1.1l1.3,2.8l4.1-6.8l1-2.3c0.6-0.7,1.3-1.5,1.9-2.2l0.5-0.4l2.2-2.1l-0.4,2.5
				l5.5-10.6l-1.2,0.9c5.5-9.7,8.6-21,8.6-32.9c0-0.5,0-1,0-1.4l5.9-16.1L417.4,297.7z"/>
			<path class="st1" d="M478.4,183c-18.1,0-30.2-28.7-30.2-28.7c-9.8,0-208.3,0-208.3,0l-8.3,18.1l-5.3,228.7l2.3,27.2l-4.5,24.2
				h224.2l8.3-8.3h21.9V414l-9.8-15.8l9.8-12.8V183z M361.8,206.4l11.2,2.4c0,0-11.8,1.2-12.3,1.4c-0.4,0.2-4.2-1.5-4.2-1.5
				L361.8,206.4z M434.2,233.1l1.7,6.9l-4.4,6.1l4.6,0.6l-10.9,11.2c8.6,13.6,13.6,29.7,13.6,47c0,8.5-1.2,16.7-3.5,24.5l-2.3,4
				l-0.5-3.9l-3.2,15.2c-8.4,16.7-22,30.3-38.6,38.9h-3.1l-9.8,4v-2.8l-4.8,5.6c-7.3,1.9-14.9,3-22.7,3c-16.4,0-31.7-4.5-44.8-12.2
				l-9.9,10.2l0.8-6.6c0,0-27.1,25.9-26.9,24.3c0.2-1.5,1.4-10.6,1.4-10.6l-3-0.9l8.3-16.4l-9.2,7.6l1-7.6l-6.1-0.8l19.2-20.4
				c-3.6-4.6-6.8-9.5-9.4-14.8v-6.8l-3.4-4.9l0.8-5.1l-3.1,2.7c-2.6-8.3-4-17-4-26.1c0-36.3,22-67.6,53.4-81.2l0,0l32.8-17.2
				l-14,9.9l11.8-4.4l9.3,0.4l-9.7,2.7l8.6,1.4l-0.2,0.1c17.4,0.7,33.5,6.4,46.9,15.8l25.4-27l-6.9,13.5l8.1-3.1l-9.5,13.7l-4.6,7.6
				l6.2-3.8l6.4-5.9l3.1-0.1l14.4-11.5l-9.8,11.6L434.2,233.1z"/>
		</g>
	</g>
</g>
</svg>
